<svg width="16" height="18" viewBox="0 0 16 18" fill="none" xmlns="http://www.w3.org/2000/svg">
<path d="M11.039 5.85193L10.3249 5.13776L4.46919 10.9933C3.74194 11.7205 3.74194 12.9039 4.46919 13.6312C5.19643 14.3585 6.37979 14.3585 7.10708 13.6312L14.9713 5.76673C15.5125 5.22552 15.8106 4.50597 15.8106 3.74061C15.8106 2.97524 15.5125 2.2557 14.9713 1.71449C14.4301 1.17331 13.7105 0.875244 12.9452 0.875244C12.1798 0.875244 11.4602 1.17331 10.9191 1.71452L1.35732 11.2763C0.627187 12.0064 0.225098 12.9771 0.225098 14.0096C0.225098 15.0422 0.627187 16.0129 1.35732 16.743C2.08746 17.4732 3.05819 17.8752 4.0907 17.8752C5.12322 17.8752 6.09395 17.4732 6.82408 16.743L14.3771 9.18997L13.663 8.47584L6.10995 16.0289C5.57057 16.5683 4.85348 16.8653 4.0907 16.8653C3.32793 16.8653 2.61084 16.5682 2.07146 16.0289C1.53207 15.4895 1.23507 14.7724 1.23507 14.0096C1.23507 13.2469 1.53214 12.5297 2.07146 11.9904L11.6332 2.42865C12.3567 1.70526 13.5338 1.70526 14.2572 2.42865C14.9806 3.15208 14.9806 4.3292 14.2572 5.05263L6.39298 12.917C6.05948 13.2505 5.51684 13.2505 5.18335 12.917C4.84986 12.5835 4.84986 12.0409 5.18335 11.7074L11.039 5.85193Z" fill="#312E2E"/>
</svg>
