<svg width="29" height="30" viewBox="0 0 29 30" fill="none" xmlns="http://www.w3.org/2000/svg">
<g clip-path="url(#clip0)">
<path d="M27.2606 0.945313H2.35043C1.49744 0.945755 0.805939 1.66239 0.806152 2.54607V28.3459C0.80658 29.2293 1.4985 29.9455 2.35172 29.9453H27.2606C28.114 29.9455 28.8059 29.2291 28.8062 28.3452C28.8062 28.345 28.8062 28.3448 28.8062 28.3446V2.54475C28.8057 1.66129 28.1138 0.945091 27.2606 0.945313Z" fill="#4267B2"/>
<path d="M20.1382 30.9445V19.7297H23.7886L24.3354 15.34H20.1382V12.5443C20.1382 11.2763 20.4781 10.4123 22.2336 10.4123H24.4585V6.4968C24.0714 6.44347 22.7433 6.32422 21.198 6.32422C17.9714 6.32422 15.7632 8.36328 15.7632 12.1095V15.34H12.1265V19.7297H15.7632V30.9445H20.1382Z" fill="white"/>
</g>
<defs>
<clipPath id="clip0">
<rect width="28" height="29" fill="white" transform="translate(0.806152 0.945312)"/>
</clipPath>
</defs>
</svg>
