<svg width="29" height="29" viewBox="0 0 29 29" fill="none" xmlns="http://www.w3.org/2000/svg">
<path d="M6.85848 14.5255C6.85848 13.1059 7.24959 11.7761 7.92906 10.6375V5.80762H3.0992C1.18227 8.2972 0.143188 11.3313 0.143188 14.5255C0.143188 17.7196 1.18227 20.7537 3.0992 23.2433H7.92906V18.4134C7.24959 17.2748 6.85848 15.945 6.85848 14.5255Z" fill="#FBBD00"/>
<path d="M14.4691 22.1348L11.1115 25.4924L14.4691 28.8501C17.6633 28.8501 20.6974 27.811 23.187 25.894V21.0693H18.3623C17.2137 21.7513 15.8783 22.1348 14.4691 22.1348Z" fill="#0F9D58"/>
<path d="M7.92905 18.4131L3.09919 23.2429C3.47872 23.7359 3.89199 24.2079 4.33917 24.6551C7.04499 27.3609 10.6425 28.8511 14.4691 28.8511V22.1358C11.6921 22.1358 9.25823 20.6405 7.92905 18.4131Z" fill="#31AA52"/>
<path d="M28.7951 14.5248C28.7951 13.6532 28.7162 12.78 28.5605 11.9295L28.4345 11.2412H14.4691V17.9565H21.2657C20.6057 19.2694 19.5909 20.3405 18.3622 21.07L23.1869 25.8948C23.6798 25.5152 24.1518 25.102 24.5991 24.6548C27.3049 21.9489 28.7951 18.3514 28.7951 14.5248Z" fill="#3C79E6"/>
<path d="M19.8507 9.14359L20.4442 9.73711L25.1927 4.98873L24.5992 4.39521C21.8933 1.6894 18.2958 0.199219 14.4691 0.199219L11.1115 3.55686L14.4691 6.91451C16.502 6.91451 18.4132 7.70613 19.8507 9.14359Z" fill="#CF2D48"/>
<path d="M14.4692 6.91451V0.199219C10.6426 0.199219 7.04504 1.6894 4.33917 4.39516C3.89199 4.84234 3.47872 5.31437 3.09919 5.80733L7.92905 10.6372C9.25829 8.40978 11.6922 6.91451 14.4692 6.91451Z" fill="#EB4132"/>
</svg>
