<svg width="30" height="25" viewBox="0 0 30 25" fill="none" xmlns="http://www.w3.org/2000/svg">
<path d="M29.5562 3.33537C28.4777 3.81722 27.3286 4.1366 26.1305 4.29168C27.363 3.54214 28.3037 2.36429 28.746 0.944602C27.5968 1.64245 26.3281 2.13537 24.976 2.41045C23.8848 1.22706 22.3297 0.494141 20.6332 0.494141C17.3417 0.494141 14.6918 3.21537 14.6918 6.55137C14.6918 7.03137 14.7317 7.49291 14.8296 7.93229C9.8869 7.68676 5.51334 5.27383 2.57528 1.59814C2.06234 2.5046 1.76146 3.54214 1.76146 4.65906C1.76146 6.75629 2.82178 8.61537 4.40228 9.69168C3.44709 9.67322 2.51003 9.39076 1.71615 8.94583C1.71615 8.96429 1.71615 8.98829 1.71615 9.01229C1.71615 11.9551 3.77696 14.3994 6.4794 14.9624C5.99546 15.0972 5.46803 15.1618 4.92065 15.1618C4.54003 15.1618 4.15578 15.1397 3.79509 15.0584C4.5654 17.4566 6.75128 19.2197 9.3504 19.2769C7.32765 20.8886 4.75934 21.8597 1.97896 21.8597C1.4914 21.8597 1.02378 21.8375 0.556152 21.7766C3.18971 23.5064 6.31084 24.4941 9.67665 24.4941C20.6169 24.4941 26.5982 15.2634 26.5982 7.26214C26.5982 6.99445 26.5891 6.73599 26.5764 6.47937C27.7563 5.62645 28.7478 4.56122 29.5562 3.33537Z" fill="#03A9F4"/>
</svg>
